<?xml version="1.0" encoding="UTF-8" standalone="no"?>
<!DOCTYPE svg PUBLIC "-//W3C//DTD SVG 1.1//EN" "http://www.w3.org/Graphics/SVG/1.1/DTD/svg11.dtd">
<svg width="100%" height="100%" viewBox="0 0 2048 1536" version="1.1" xmlns="http://www.w3.org/2000/svg" xmlns:xlink="http://www.w3.org/1999/xlink" xml:space="preserve" style="fill-rule:evenodd;clip-rule:evenodd;stroke-linejoin:round;stroke-miterlimit:1.41421;">
    <g id="owl_black">
        <path d="M733.823,415.529C816.055,415.529 882.817,482.291 882.817,564.523C882.817,646.755 816.055,713.517 733.823,713.517C651.591,713.517 584.829,646.755 584.829,564.523C584.829,482.291 651.591,415.529 733.823,415.529ZM784.769,484.359C813.176,484.359 836.239,507.422 836.239,535.829C836.239,564.236 813.176,587.299 784.769,587.299C756.362,587.299 733.299,564.236 733.299,535.829C733.299,507.422 756.362,484.359 784.769,484.359Z" style="fill:black;"/>
        <g transform="matrix(-1,0,0,1,1813.65,0)">
            <path d="M733.823,415.529C816.055,415.529 882.817,482.291 882.817,564.523C882.817,646.755 816.055,713.517 733.823,713.517C651.591,713.517 584.829,646.755 584.829,564.523C584.829,482.291 651.591,415.529 733.823,415.529ZM784.769,484.359C813.176,484.359 836.239,507.422 836.239,535.829C836.239,564.236 813.176,587.299 784.769,587.299C756.362,587.299 733.299,564.236 733.299,535.829C733.299,507.422 756.362,484.359 784.769,484.359Z" style="fill:black;"/>
        </g>
        <g transform="matrix(0.874311,0.404903,-0.420234,0.907416,310.004,73.8452)">
            <rect x="365.133" y="68.775" width="380.827" height="87.554" style="fill:black;"/>
        </g>
        <g transform="matrix(-0.872121,0.403889,0.420234,0.907416,1497.61,74.602)">
            <rect x="365.133" y="68.775" width="380.827" height="87.554" style="fill:black;"/>
        </g>
        <g transform="matrix(1,0,0,0.508242,-19.0271,204.291)">
            <path d="M925.406,859.317L997.34,1003.19L853.473,1003.19L925.406,859.317Z" style="fill:black;"/>
        </g>
        <g transform="matrix(1,0,0,-0.762785,-19.0271,1478.5)">
            <path d="M925.406,859.317L997.34,1003.19L853.473,1003.19L925.406,859.317Z" style="fill:black;"/>
        </g>
    </g>
</svg>
